<svg width="25" height="24" viewBox="0 0 25 24" fill="none" xmlns="http://www.w3.org/2000/svg">
<path d="M13.36 3.25999L22.9 19.76C23.0333 19.9867 23.0633 20.2333 22.99 20.5C22.9166 20.7667 22.76 20.9733 22.52 21.12C22.3733 21.2133 22.2066 21.26 22.02 21.26H2.97998C2.69998 21.26 2.46331 21.16 2.26998 20.96C2.07665 20.76 1.97998 20.5267 1.97998 20.26C1.97998 20.0733 2.01998 19.9067 2.09998 19.76L11.64 3.25999C11.7733 3.01999 11.9733 2.86333 12.24 2.79C12.5066 2.71666 12.76 2.74666 13 2.88C13.16 2.97333 13.28 3.09999 13.36 3.25999ZM4.69998 19.26H20.3L12.5 5.75999L4.69998 19.26ZM11.5 16.26H13.5V18.26H11.5V16.26ZM11.5 9.25999H13.5V14.26H11.5V9.25999Z" fill="white"/>
</svg>
