<svg width="25" height="24" viewBox="0 0 25 24" fill="none" xmlns="http://www.w3.org/2000/svg">
<path d="M7.5 8.5V6.5C7.5 5.59333 7.72333 4.75667 8.17 3.99C8.61667 3.22333 9.22333 2.61667 9.99 2.17C10.7567 1.72333 11.5933 1.5 12.5 1.5C13.4067 1.5 14.2433 1.72333 15.01 2.17C15.7767 2.61667 16.3833 3.22333 16.83 3.99C17.2767 4.75667 17.5 5.59333 17.5 6.5V8.5H20.5C20.78 8.5 21.0167 8.59667 21.21 8.79C21.4033 8.98333 21.5 9.22 21.5 9.5V21.5C21.5 21.78 21.4033 22.0167 21.21 22.21C21.0167 22.4033 20.78 22.5 20.5 22.5H4.5C4.22 22.5 3.98333 22.4033 3.79 22.21C3.59667 22.0167 3.5 21.78 3.5 21.5V9.5C3.5 9.22 3.59667 8.98333 3.79 8.79C3.98333 8.59667 4.22 8.5 4.5 8.5H7.5ZM7.5 10.5H5.5V20.5H19.5V10.5H17.5V12.5H15.5V10.5H9.5V12.5H7.5V10.5ZM9.5 8.5H15.5V6.5C15.5 5.95333 15.3667 5.45 15.1 4.99C14.8333 4.53 14.47 4.16667 14.01 3.9C13.55 3.63333 13.0467 3.5 12.5 3.5C11.9533 3.5 11.45 3.63333 10.99 3.9C10.53 4.16667 10.1667 4.53 9.9 4.99C9.63333 5.45 9.5 5.95333 9.5 6.5V8.5Z" fill="white"/>
</svg>
