<svg width="21" height="20" viewBox="0 0 21 20" fill="none" xmlns="http://www.w3.org/2000/svg">
<path d="M2.91613 2.5H17.9124C18.1457 2.5 18.3428 2.58055 18.5039 2.74167C18.665 2.90278 18.7455 3.1 18.7455 3.33333V16.6667C18.7455 16.9 18.665 17.0972 18.5039 17.2583C18.3428 17.4194 18.1457 17.5 17.9124 17.5H2.91613C2.68286 17.5 2.48568 17.4194 2.32461 17.2583C2.16354 17.0972 2.08301 16.9 2.08301 16.6667V3.33333C2.08301 3.1 2.16354 2.90278 2.32461 2.74167C2.48568 2.58055 2.68286 2.5 2.91613 2.5ZM3.74926 4.16667V15.8333H17.0793V4.16667H3.74926ZM17.0793 10L14.13 12.95L12.9636 11.7667L14.7298 10L12.9636 8.23333L14.13 7.05L17.0793 10ZM6.09867 10L7.8649 11.7667L6.69852 12.95L3.74926 10L6.69852 7.05L7.8649 8.23333L6.09867 10ZM9.78108 14.1667H8.01486L11.0474 5.83333H12.8137L9.78108 14.1667Z" fill="#374151"/>
</svg>
