<svg width="21" height="20" viewBox="0 0 21 20" fill="none" xmlns="http://www.w3.org/2000/svg">
<path d="M2.91589 2.5H17.9121C18.1454 2.5 18.3426 2.58055 18.5037 2.74167C18.6647 2.90278 18.7453 3.1 18.7453 3.33333V16.6667C18.7453 16.9 18.6647 17.0972 18.5037 17.2583C18.3426 17.4194 18.1454 17.5 17.9121 17.5H2.91589C2.68261 17.5 2.48544 17.4194 2.32437 17.2583C2.1633 17.0972 2.08276 16.9 2.08276 16.6667V3.33333C2.08276 3.1 2.1633 2.90278 2.32437 2.74167C2.48544 2.58055 2.68261 2.5 2.91589 2.5ZM17.079 9.16667H3.74901V15.8333H17.079V9.16667ZM17.079 7.5V4.16667H3.74901V7.5H17.079ZM12.0803 12.5H15.4128V14.1667H12.0803V12.5Z" fill="#374151"/>
</svg>
