<svg width="21" height="20" viewBox="0 0 21 20" fill="none" xmlns="http://www.w3.org/2000/svg">
<path d="M6.24852 7.08333V5.41667C6.24852 4.66111 6.43458 3.96389 6.80671 3.325C7.17884 2.68611 7.68427 2.18056 8.323 1.80833C8.96173 1.43611 9.65877 1.25 10.4141 1.25C11.1695 1.25 11.8666 1.43611 12.5053 1.80833C13.144 2.18056 13.6494 2.68611 14.0216 3.325C14.3937 3.96389 14.5798 4.66111 14.5798 5.41667V7.08333H17.0791C17.3124 7.08333 17.5096 7.16389 17.6707 7.325C17.8317 7.48611 17.9123 7.68333 17.9123 7.91667V17.9167C17.9123 18.15 17.8317 18.3472 17.6707 18.5083C17.5096 18.6694 17.3124 18.75 17.0791 18.75H3.74914C3.51587 18.75 3.31869 18.6694 3.15762 18.5083C2.99655 18.3472 2.91602 18.15 2.91602 17.9167V7.91667C2.91602 7.68333 2.99655 7.48611 3.15762 7.325C3.31869 7.16389 3.51587 7.08333 3.74914 7.08333H6.24852ZM6.24852 8.75H4.58227V17.0833H16.246V8.75H14.5798V10.4167H12.9135V8.75H7.91477V10.4167H6.24852V8.75ZM7.91477 7.08333H12.9135V5.41667C12.9135 4.96111 12.8024 4.54167 12.5803 4.15833C12.3581 3.775 12.0554 3.47222 11.6722 3.25C11.2889 3.02778 10.8696 2.91667 10.4141 2.91667C9.9587 2.91667 9.53936 3.02778 9.15612 3.25C8.77288 3.47222 8.47018 3.775 8.24802 4.15833C8.02585 4.54167 7.91477 4.96111 7.91477 5.41667V7.08333Z" fill="#374151"/>
</svg>
