<svg width="21" height="20" viewBox="0 0 21 20" fill="none" xmlns="http://www.w3.org/2000/svg">
<path d="M9.58102 5.83334H11.2473V14.1667H9.58102V5.83334ZM12.9135 9.16668H14.5798V14.1667H12.9135V9.16668ZM6.24852 10.8333H7.91477V14.1667H6.24852V10.8333ZM12.9135 3.33334H4.58227V16.6667H16.246V6.66668H12.9135V3.33334ZM2.91602 2.50001C2.91602 2.26668 2.99655 2.06946 3.15762 1.90834C3.31869 1.74723 3.51587 1.66668 3.74914 1.66668H13.7466L17.9123 5.83334V17.5C17.9123 17.7222 17.8317 17.9167 17.6707 18.0833C17.5096 18.25 17.3124 18.3333 17.0791 18.3333H3.74914C3.51587 18.3333 3.31869 18.2528 3.15762 18.0917C2.99655 17.9306 2.91602 17.7333 2.91602 17.5V2.50001Z" fill="#374151"/>
</svg>
