<svg width="21" height="20" viewBox="0 0 21 20" fill="none" xmlns="http://www.w3.org/2000/svg">
<path d="M16.246 8.33331H17.0791C17.3124 8.33331 17.5095 8.41387 17.6706 8.57498C17.8317 8.73609 17.9122 8.93331 17.9122 9.16665V17.5C17.9122 17.7333 17.8317 17.9305 17.6706 18.0916C17.5095 18.2528 17.3124 18.3333 17.0791 18.3333H3.74908C3.5158 18.3333 3.31863 18.2528 3.15756 18.0916C2.99649 17.9305 2.91595 17.7333 2.91595 17.5V9.16665C2.91595 8.93331 2.99649 8.73609 3.15756 8.57498C3.31863 8.41387 3.5158 8.33331 3.74908 8.33331H4.5822V7.49998C4.5822 6.44442 4.8488 5.46109 5.382 4.54998C5.89299 3.6722 6.58726 2.97776 7.46482 2.46665C8.3757 1.93331 9.35879 1.66665 10.4141 1.66665C11.4694 1.66665 12.4525 1.93331 13.3633 2.46665C14.2409 2.97776 14.9352 3.6722 15.4462 4.54998C15.9794 5.46109 16.246 6.44442 16.246 7.49998V8.33331ZM4.5822 9.99998V16.6666H16.246V9.99998H4.5822ZM9.58096 11.6666H11.2472V15H9.58096V11.6666ZM14.5797 8.33331V7.49998C14.5797 6.74442 14.3936 6.0472 14.0215 5.40831C13.6494 4.76943 13.144 4.26387 12.5052 3.89165C11.8665 3.51943 11.1694 3.33331 10.4141 3.33331C9.65871 3.33331 8.96167 3.51943 8.32294 3.89165C7.68421 4.26387 7.17878 4.76943 6.80665 5.40831C6.43452 6.0472 6.24845 6.74442 6.24845 7.49998V8.33331H14.5797Z" fill="#9CA3AF"/>
</svg>
