<svg width="21" height="20" viewBox="0 0 21 20" fill="none" xmlns="http://www.w3.org/2000/svg">
<path d="M2.91595 2.5H17.9122C18.1455 2.5 18.3426 2.58055 18.5037 2.74167C18.6648 2.90278 18.7453 3.1 18.7453 3.33333V16.6667C18.7453 16.9 18.6648 17.0972 18.5037 17.2583C18.3426 17.4194 18.1455 17.5 17.9122 17.5H2.91595C2.68267 17.5 2.4855 17.4194 2.32443 17.2583C2.16336 17.0972 2.08282 16.9 2.08282 16.6667V3.33333C2.08282 3.1 2.16336 2.90278 2.32443 2.74167C2.4855 2.58055 2.68267 2.5 2.91595 2.5ZM17.0791 6.03333L10.4807 11.95L3.74907 6.01667V15.8333H17.0791V6.03333ZM4.1823 4.16667L10.4641 9.71667L16.6625 4.16667H4.1823Z" fill="#9CA3AF"/>
</svg>
