<svg width="21" height="20" viewBox="0 0 21 20" fill="none" xmlns="http://www.w3.org/2000/svg">
<path d="M17.0791 18.3333H3.74914C3.51587 18.3333 3.31869 18.2528 3.15762 18.0916C2.99655 17.9305 2.91602 17.7333 2.91602 17.5V2.49998C2.91602 2.26665 2.99655 2.06943 3.15762 1.90831C3.31869 1.7472 3.51587 1.66665 3.74914 1.66665H17.0791C17.3124 1.66665 17.5096 1.7472 17.6707 1.90831C17.8317 2.06943 17.9123 2.26665 17.9123 2.49998V17.5C17.9123 17.7333 17.8317 17.9305 17.6707 18.0916C17.5096 18.2528 17.3124 18.3333 17.0791 18.3333ZM16.246 16.6666V3.33331H4.58227V16.6666H16.246ZM7.08164 5.83331H13.7466V7.49998H7.08164V5.83331ZM7.08164 9.16665H13.7466V10.8333H7.08164V9.16665ZM7.08164 12.5H13.7466V14.1666H7.08164V12.5Z" fill="white"/>
</svg>
