<svg width="21" height="20" viewBox="0 0 21 20" fill="none" xmlns="http://www.w3.org/2000/svg">
<path d="M15.4128 5.83333H17.9121C18.1454 5.83333 18.3426 5.91389 18.5037 6.075C18.6647 6.23611 18.7453 6.43333 18.7453 6.66667V16.6667C18.7453 16.9 18.6647 17.0972 18.5037 17.2583C18.3426 17.4194 18.1454 17.5 17.9121 17.5H2.91589C2.68261 17.5 2.48544 17.4194 2.32437 17.2583C2.1633 17.0972 2.08276 16.9 2.08276 16.6667V3.33333C2.08276 3.1 2.1633 2.90278 2.32437 2.74167C2.48544 2.58055 2.68261 2.5 2.91589 2.5H15.4128V5.83333ZM3.74901 7.5V15.8333H17.079V7.5H3.74901ZM3.74901 4.16667V5.83333H13.7465V4.16667H3.74901ZM12.9134 10.8333H15.4128V12.5H12.9134V10.8333Z" fill="#9333EA"/>
</svg>
