<svg width="21" height="20" viewBox="0 0 21 20" fill="none" xmlns="http://www.w3.org/2000/svg">
<path d="M3.44921 12.9167V2.91667H1.78296V1.25H4.28233C4.51561 1.25 4.71278 1.33055 4.87385 1.49166C5.03492 1.65278 5.11546 1.85 5.11546 2.08333V12.0833H15.4795L17.1458 5.41667H6.78171V3.75H18.2122C18.4455 3.75 18.6426 3.83055 18.8037 3.99167C18.9648 4.15278 19.0453 4.35 19.0453 4.58333C19.0453 4.65 19.0342 4.71667 19.012 4.78333L16.9292 13.1167C16.8847 13.3056 16.7875 13.4583 16.6376 13.575C16.4876 13.6917 16.3182 13.75 16.1294 13.75H4.28233C4.04906 13.75 3.85189 13.6694 3.69082 13.5083C3.52974 13.3472 3.44921 13.15 3.44921 12.9167ZM5.11546 18.75C4.81553 18.75 4.53783 18.675 4.28233 18.525C4.02684 18.375 3.82412 18.1722 3.67415 17.9167C3.52419 17.6611 3.44921 17.3833 3.44921 17.0833C3.44921 16.7833 3.52419 16.5056 3.67415 16.25C3.82412 15.9944 4.02684 15.7917 4.28233 15.6417C4.53783 15.4917 4.81553 15.4167 5.11546 15.4167C5.41538 15.4167 5.69309 15.4917 5.94858 15.6417C6.20408 15.7917 6.4068 15.9944 6.55677 16.25C6.70673 16.5056 6.78171 16.7833 6.78171 17.0833C6.78171 17.3833 6.70673 17.6611 6.55677 17.9167C6.4068 18.1722 6.20408 18.375 5.94858 18.525C5.69309 18.675 5.41538 18.75 5.11546 18.75ZM15.113 18.75C14.813 18.75 14.5353 18.675 14.2798 18.525C14.0243 18.375 13.8216 18.1722 13.6717 17.9167C13.5217 17.6611 13.4467 17.3833 13.4467 17.0833C13.4467 16.7833 13.5217 16.5056 13.6717 16.25C13.8216 15.9944 14.0243 15.7917 14.2798 15.6417C14.5353 15.4917 14.813 15.4167 15.113 15.4167C15.4129 15.4167 15.6906 15.4917 15.9461 15.6417C16.2016 15.7917 16.4043 15.9944 16.5543 16.25C16.7042 16.5056 16.7792 16.7833 16.7792 17.0833C16.7792 17.3833 16.7042 17.6611 16.5543 17.9167C16.4043 18.1722 16.2016 18.375 15.9461 18.525C15.6906 18.675 15.4129 18.75 15.113 18.75Z" fill="white"/>
</svg>
