<svg width="21" height="20" viewBox="0 0 21 20" fill="none" xmlns="http://www.w3.org/2000/svg">
<path d="M2.91589 2.5H17.9121C18.1454 2.5 18.3426 2.58055 18.5037 2.74167C18.6647 2.90278 18.7453 3.1 18.7453 3.33333V16.6667C18.7453 16.9 18.6647 17.0972 18.5037 17.2583C18.3426 17.4194 18.1454 17.5 17.9121 17.5H2.91589C2.68261 17.5 2.48544 17.4194 2.32437 17.2583C2.1633 17.0972 2.08276 16.9 2.08276 16.6667V3.33333C2.08276 3.1 2.1633 2.90278 2.32437 2.74167C2.48544 2.58055 2.68261 2.5 2.91589 2.5ZM3.74901 4.16667V15.8333H17.079V4.16667H3.74901ZM17.079 10L14.1298 12.95L12.9634 11.7667L14.7296 10L12.9634 8.23333L14.1298 7.05L17.079 10ZM6.09843 10L7.86465 11.7667L6.69828 12.95L3.74901 10L6.69828 7.05L7.86465 8.23333L6.09843 10ZM9.78084 14.1667H8.01461L11.0472 5.83333H12.8134L9.78084 14.1667Z" fill="white"/>
</svg>
