<svg width="21" height="20" viewBox="0 0 21 20" fill="none" xmlns="http://www.w3.org/2000/svg">
<path d="M2.91613 2.5H17.9124C18.1457 2.5 18.3428 2.58055 18.5039 2.74167C18.665 2.90278 18.7455 3.1 18.7455 3.33333V16.6667C18.7455 16.9 18.665 17.0972 18.5039 17.2583C18.3428 17.4194 18.1457 17.5 17.9124 17.5H2.91613C2.68286 17.5 2.48568 17.4194 2.32461 17.2583C2.16354 17.0972 2.08301 16.9 2.08301 16.6667V3.33333C2.08301 3.1 2.16354 2.90278 2.32461 2.74167C2.48568 2.58055 2.68286 2.5 2.91613 2.5ZM17.0793 9.16667H3.74926V15.8333H17.0793V9.16667ZM17.0793 7.5V4.16667H3.74926V7.5H17.0793ZM12.0805 12.5H15.413V14.1667H12.0805V12.5Z" fill="white"/>
</svg>
