<svg width="21" height="20" viewBox="0 0 21 20" fill="none" xmlns="http://www.w3.org/2000/svg">
<path d="M12.0804 17.5C11.8471 17.5 11.6499 17.4194 11.4889 17.2583C11.3278 17.0972 11.2473 16.9 11.2473 16.6667V10C11.2473 9.76667 11.3278 9.56944 11.4889 9.40833C11.6499 9.24722 11.8471 9.16667 12.0804 9.16667H17.0791C17.3124 9.16667 17.5096 9.24722 17.6707 9.40833C17.8317 9.56944 17.9123 9.76667 17.9123 10V16.6667C17.9123 16.9 17.8317 17.0972 17.6707 17.2583C17.5096 17.4194 17.3124 17.5 17.0791 17.5H12.0804ZM3.74914 10.8333C3.51587 10.8333 3.31869 10.7528 3.15762 10.5917C2.99655 10.4306 2.91602 10.2333 2.91602 10V3.33333C2.91602 3.1 2.99655 2.90278 3.15762 2.74167C3.31869 2.58055 3.51587 2.5 3.74914 2.5H8.74789C8.98117 2.5 9.17834 2.58055 9.33941 2.74167C9.50048 2.90278 9.58102 3.1 9.58102 3.33333V10C9.58102 10.2333 9.50048 10.4306 9.33941 10.5917C9.17834 10.7528 8.98117 10.8333 8.74789 10.8333H3.74914ZM7.91477 9.16667V4.16667H4.58227V9.16667H7.91477ZM3.74914 17.5C3.51587 17.5 3.31869 17.4194 3.15762 17.2583C2.99655 17.0972 2.91602 16.9 2.91602 16.6667V13.3333C2.91602 13.1 2.99655 12.9028 3.15762 12.7417C3.31869 12.5806 3.51587 12.5 3.74914 12.5H8.74789C8.98117 12.5 9.17834 12.5806 9.33941 12.7417C9.50048 12.9028 9.58102 13.1 9.58102 13.3333V16.6667C9.58102 16.9 9.50048 17.0972 9.33941 17.2583C9.17834 17.4194 8.98117 17.5 8.74789 17.5H3.74914ZM4.58227 15.8333H7.91477V14.1667H4.58227V15.8333ZM12.9135 15.8333H16.246V10.8333H12.9135V15.8333ZM11.2473 3.33333C11.2473 3.1 11.3278 2.90278 11.4889 2.74167C11.6499 2.58055 11.8471 2.5 12.0804 2.5H17.0791C17.3124 2.5 17.5096 2.58055 17.6707 2.74167C17.8317 2.90278 17.9123 3.1 17.9123 3.33333V6.66667C17.9123 6.9 17.8317 7.09722 17.6707 7.25833C17.5096 7.41944 17.3124 7.5 17.0791 7.5H12.0804C11.8471 7.5 11.6499 7.41944 11.4889 7.25833C11.3278 7.09722 11.2473 6.9 11.2473 6.66667V3.33333ZM12.9135 4.16667V5.83333H16.246V4.16667H12.9135Z" fill="white"/>
</svg>
